<?xml version="1.0" standalone="no"?>
<!DOCTYPE svg PUBLIC "-//W3C//DTD SVG 20010904//EN"
 "http://www.w3.org/TR/2001/REC-SVG-20010904/DTD/svg10.dtd">
<svg version="1.0" xmlns="http://www.w3.org/2000/svg"
 width="24.000000pt" height="24.000000pt" viewBox="0 0 26.000000 26.000000 "
 preserveAspectRatio="xMidYMid meet">

<g transform="translate(0.000000,24.000000) scale(0.100000,-0.100000)"
fill="#1C274C" stroke="none" >
<path d="M57 203 c-4 -3 -7 -44 -7 -90 l0 -83 50 0 50 0 -4 45 c-3 24 -1 47 3
49 5 3 6 17 3 31 -4 22 -6 23 -16 9 -18 -23 -71 -15 -71 11 0 16 7 20 38 20
20 0 37 3 37 8 0 9 -74 10 -83 0z"/>
<path d="M178 129 c3 -37 2 -50 -7 -45 -6 4 -11 2 -11 -4 0 -7 6 -10 13 -8 14
5 23 108 9 108 -5 0 -7 -23 -4 -51z"/>
</g>
</svg>
