<?xml version="1.0" standalone="no"?>
<!DOCTYPE svg PUBLIC "-//W3C//DTD SVG 20010904//EN"
 "http://www.w3.org/TR/2001/REC-SVG-20010904/DTD/svg10.dtd">
<svg version="1.0" xmlns="http://www.w3.org/2000/svg"
 width="217.000000pt" height="46.000000pt" viewBox="0 0 217.000000 46.000000"
 preserveAspectRatio="xMidYMid meet">
<metadata>
Created by potrace 1.10, written by Peter Selinger 2001-2011
</metadata>
<g transform="translate(0.000000,46.000000) scale(0.100000,-0.100000)"
fill="#000000" stroke="none">
<path d="M382 399 c45 -34 89 -67 97 -73 11 -8 13 -8 7 2 -13 21 2 31 34 22
17 -5 30 -7 30 -5 0 2 -42 29 -93 60 -62 37 -104 55 -126 55 -32 0 -30 -2 51
-61z"/>
<path d="M611 412 c26 -61 39 -74 32 -31 -4 19 -7 43 -7 55 -1 13 -8 21 -23
22 l-22 2 20 -48z"/>
<path d="M710 443 c1 -10 70 -60 132 -95 76 -44 56 -19 -36 45 -85 57 -96 63
-96 50z"/>
<path d="M1062 433 c2 -5 12 -27 22 -50 16 -37 21 -42 42 -37 13 3 32 3 41 -1
60 -26 44 -6 -45 58 -51 36 -67 44 -60 30z"/>
<path d="M1866 415 c-75 -26 -139 -114 -135 -183 1 -21 -2 -45 -6 -55 -9 -22
8 -42 29 -34 21 8 20 44 -1 55 -14 8 -15 15 -4 58 16 64 53 112 105 135 127
58 266 -33 266 -175 0 -79 -67 -175 -134 -190 -15 -4 -26 -9 -23 -12 12 -13
71 10 104 39 124 109 83 317 -71 362 -60 18 -80 18 -130 0z"/>
<path d="M55 362 l-40 -3 3 -118 3 -119 27 -4 27 -4 -3 118 -4 118 29 0 c37 0
53 -16 53 -55 0 -37 -15 -55 -50 -56 -23 0 -24 -1 -4 -9 11 -4 30 -30 42 -58
18 -41 27 -50 52 -54 16 -3 30 -2 30 2 0 3 -15 32 -34 63 l-34 56 24 16 c25
16 32 57 15 84 -10 16 -77 27 -136 23z"/>
<path d="M670 241 l0 -119 32 2 c25 2 44 -8 95 -52 35 -30 66 -52 69 -49 9 8
-38 77 -52 77 -8 0 -33 9 -55 21 -40 20 -41 21 -39 72 2 29 2 78 1 110 -1 54
-2 57 -26 57 l-25 0 0 -119z"/>
<path d="M533 326 c-47 -16 -73 -47 -75 -87 -2 -50 9 -76 43 -100 25 -17 40
-20 80 -17 57 6 73 16 59 38 -7 10 -12 12 -17 4 -14 -19 -53 -35 -72 -29 -25
8 -41 47 -41 100 0 69 45 96 98 59 25 -17 38 -13 29 9 -8 22 -68 35 -104 23z"/>
<path d="M290 312 c-38 -18 -60 -65 -52 -108 8 -41 61 -84 103 -84 50 0 89 19
89 42 0 21 -16 24 -27 4 -12 -20 -52 -38 -72 -31 -18 6 -41 44 -41 70 0 12 15
15 70 15 67 0 70 1 70 24 0 38 -10 56 -41 71 -36 19 -56 19 -99 -3z m90 -54
c0 -27 -2 -28 -45 -28 -49 0 -54 9 -34 54 22 49 79 30 79 -26z"/>
<path d="M753 304 c-32 -36 -29 -53 2 -20 22 23 28 26 41 15 12 -10 15 -30 13
-93 l-4 -81 28 -2 27 -2 0 83 c0 92 -9 113 -55 121 -24 5 -35 0 -52 -21z"/>
<path d="M938 318 c-30 -10 -33 -15 -19 -37 6 -9 11 -10 15 -2 4 6 12 9 17 6
5 -3 6 0 3 8 -6 18 44 33 59 18 5 -5 10 -41 10 -78 1 -64 -1 -69 -27 -83 -25
-14 -28 -13 -42 4 -23 31 -17 56 24 93 l37 35 -40 -16 c-46 -19 -85 -58 -85
-87 0 -26 35 -59 63 -59 12 0 32 7 44 15 19 13 22 13 27 0 3 -8 12 -15 21 -15
8 0 46 -22 83 -49 37 -27 78 -51 92 -55 l25 -7 -25 18 c-13 10 -31 25 -40 33
-8 8 -34 24 -58 34 l-42 19 0 84 c0 76 -2 86 -25 108 -26 27 -68 31 -117 13z"/>
<path d="M1110 225 l0 -102 26 1 c25 1 26 4 26 56 0 138 0 137 -27 142 l-25 5
0 -102z"/>
<path d="M1208 310 c-14 -11 -28 -29 -31 -41 l-6 -21 23 21 c22 21 76 26 76 7
0 -5 3 -7 6 -4 7 7 -25 58 -36 58 -4 0 -19 -9 -32 -20z"/>
<path d="M1540 308 c-61 -41 -64 -108 -8 -160 22 -21 40 -28 69 -28 44 0 89
18 89 35 0 24 -14 24 -42 0 -49 -41 -82 -30 -94 33 l-6 32 71 0 71 0 0 29 c0
36 -49 81 -89 81 -16 0 -43 -10 -61 -22z m82 -5 c10 -9 18 -29 18 -45 0 -27
-2 -28 -45 -28 -41 0 -45 2 -45 25 0 23 30 65 47 65 3 0 15 -7 25 -17z"/>
<path d="M1290 304 c0 -11 5 -14 18 -9 9 4 37 10 61 13 l44 5 -23 -34 c-13
-19 -41 -57 -62 -86 -44 -61 -46 -67 -15 -69 12 -1 27 -3 32 -4 6 -1 38 -2 73
-1 56 1 62 3 62 22 0 15 -4 19 -16 15 -15 -6 -32 -10 -91 -22 -13 -2 -23 -1
-23 4 0 5 27 45 60 90 33 45 60 84 60 87 0 3 -40 5 -90 5 -76 0 -90 -3 -90
-16z"/>
<path d="M584 246 c22 -20 41 -34 44 -31 8 7 -14 29 -50 48 l-33 18 39 -35z"/>
<path d="M1812 260 c-42 -67 29 -158 82 -104 22 21 20 34 -4 34 -11 0 -20 -4
-20 -10 0 -5 -7 -10 -15 -10 -8 0 -15 7 -15 15 0 14 24 20 58 16 15 -2 16 33
2 60 -15 26 -71 26 -88 -1z"/>
<path d="M1945 213 c19 -57 26 -68 45 -68 20 0 26 9 41 65 10 36 18 66 19 68
0 1 -9 2 -19 2 -21 0 -31 -19 -31 -56 0 -39 -18 -28 -25 16 -6 33 -11 40 -30
40 l-23 0 23 -67z"/>
<path d="M1250 135 c0 -27 46 -135 58 -135 10 0 12 6 7 18 -4 9 -12 31 -18 47
-10 30 -47 84 -47 70z"/>
<path d="M1506 112 c11 -10 32 -25 48 -36 22 -14 26 -20 15 -27 -10 -6 -6 -9
14 -9 15 0 35 -9 44 -20 10 -12 30 -20 47 -20 26 0 21 5 -47 50 -42 28 -81 50
-86 50 -6 0 -11 4 -11 9 0 5 -10 11 -21 14 -21 6 -21 5 -3 -11z"/>
<path d="M1380 99 c31 -21 170 -89 182 -89 16 1 -33 39 -49 40 -7 0 -13 4 -13
9 0 4 -20 14 -45 21 -25 7 -48 17 -51 21 -3 5 -13 9 -22 9 -15 0 -15 -2 -2
-11z"/>
</g>
</svg>
